<?xml version="1.0" encoding="UTF-8" standalone="no"?>
<svg
   id="Ebene_1"
   data-name="Ebene 1"
   viewBox="0 0 76.325008 76.270008"
   version="1.1"
   sodipodi:docname="photon.svg"
   inkscape:version="1.4.2 (f4327f4, 2025-05-13)"
   width="76.325005"
   height="76.270004"
   xmlns:inkscape="http://www.inkscape.org/namespaces/inkscape"
   xmlns:sodipodi="http://sodipodi.sourceforge.net/DTD/sodipodi-0.dtd"
   xmlns="http://www.w3.org/2000/svg"
   xmlns:svg="http://www.w3.org/2000/svg">
  <sodipodi:namedview
     id="namedview10"
     pagecolor="#ffffff"
     bordercolor="#999999"
     borderopacity="1"
     inkscape:showpageshadow="2"
     inkscape:pageopacity="0"
     inkscape:pagecheckerboard="0"
     inkscape:deskcolor="#d1d1d1"
     inkscape:zoom="13.157332"
     inkscape:cx="76.23126"
     inkscape:cy="60.08057"
     inkscape:window-width="3840"
     inkscape:window-height="2054"
     inkscape:window-x="2869"
     inkscape:window-y="-11"
     inkscape:window-maximized="1"
     inkscape:current-layer="Ebene_1" />
  <defs
     id="defs5">
    <style
       id="style1">.cls-1{fill:#004480;}.cls-2{fill-rule:evenodd;fill:url(#Unbenannter_Verlauf_97);}</style>
    <linearGradient
       id="Unbenannter_Verlauf_97"
       x1="21.309999"
       y1="22.93"
       x2="83.800003"
       y2="66.690002"
       gradientUnits="userSpaceOnUse">
      <stop
         offset="0.19"
         stop-color="#71d7fc"
         id="stop1" />
      <stop
         offset="0.29"
         stop-color="#67caf1"
         id="stop2" />
      <stop
         offset="0.47"
         stop-color="#4ea9d5"
         id="stop3" />
      <stop
         offset="0.7"
         stop-color="#2574a9"
         id="stop4" />
      <stop
         offset="0.89"
         stop-color="#004480"
         id="stop5" />
    </linearGradient>
    <clipPath
       clipPathUnits="userSpaceOnUse"
       id="clipPath11">
      <rect
         style="fill:#000000;fill-opacity:0.427419"
         id="rect11"
         width="76.325203"
         height="76.335991"
         x="0.0010624647"
         y="-0.0097403834" />
    </clipPath>
  </defs>
  <g
     id="Photon_ALL_color"
     clip-path="url(#clipPath11)"
     transform="translate(-0.0012602,0.00500188)">
    <g
       id="Photon_ALL_color-2"
       data-name="Photon_ALL_color">
      <g
         id="PHOTON">
        <path
           class="cls-1"
           d="m 266.56,61 h 7.22 V 35.56 a 28.21,28.21 0 0 1 7.09,-0.79 c 4,0 6.7,1.31 6.7,6.17 V 61 h 7.15 V 40.74 c 0,-9.19 -5.05,-12.8 -13.72,-12.8 -4.85,0 -10.89,0.73 -14.44,2.1 z"
           transform="translate(-14.42,-6.68)"
           id="path5" />
        <path
           class="cls-1"
           d="m 253.7,44.81 c 0,6.17 -1.38,10.11 -7.81,10.11 -6.43,0 -7.81,-3.94 -7.81,-10.11 0,-6.17 1.44,-10 7.81,-10 6.37,0 7.81,3.87 7.81,10 z m -7.81,16.93 c 10.17,0 15,-6.69 15,-16.93 0,-10.63 -4.46,-16.87 -15,-16.87 -10.11,0 -15.09,6.63 -15.09,16.87 0,10.7 4.52,16.93 15.09,16.93 z"
           transform="translate(-14.42,-6.68)"
           id="path6" />
        <path
           class="cls-1"
           d="m 207.63,49.47 c 0,9.25 5.05,12.21 12.07,12.21 a 21.36,21.36 0 0 0 8.08,-1.45 l -1.12,-6.82 a 17,17 0 0 1 -7,1.44 c -2.89,0 -4.79,-1.31 -4.79,-5.31 V 35.43 h 11.68 V 28.6 h -11.7 v -8.53 h -7.22 z"
           transform="translate(-14.42,-6.68)"
           id="path7" />
        <path
           class="cls-1"
           d="m 194.76,44.81 c 0,6.17 -1.37,10.11 -7.81,10.11 -6.44,0 -7.81,-3.94 -7.81,-10.11 0,-6.17 1.45,-10 7.81,-10 6.36,0 7.81,3.87 7.81,10 z M 187,61.74 c 10.18,0 15,-6.69 15,-16.93 0,-10.63 -4.46,-16.87 -15,-16.87 -10.1,0 -15.09,6.63 -15.09,16.87 0,10.7 4.53,16.93 15.09,16.93 z"
           transform="translate(-14.42,-6.68)"
           id="path8" />
        <path
           class="cls-1"
           d="m 138.06,61 h 7.22 V 35.56 a 27.34,27.34 0 0 1 7.09,-0.79 c 4,0 6.69,1.31 6.69,6.17 V 61 h 7.15 V 40.94 c 0,-9.65 -5.44,-13 -13.52,-13 a 26,26 0 0 0 -7.41,0.92 V 15.08 h -7.22 z"
           transform="translate(-14.42,-6.68)"
           id="path9" />
        <path
           class="cls-1"
           d="m 104.19,74.94 h 7.22 V 60.82 a 15.1,15.1 0 0 0 5.45,0.92 c 9.91,0 15.55,-6.36 15.55,-17.39 0,-10.63 -5,-16.41 -16.27,-16.41 a 36.81,36.81 0 0 0 -12,2 v 45 z m 20.94,-30.13 c 0,6.7 -1.77,10.11 -8.6,10.11 a 9.76,9.76 0 0 1 -5.12,-1.05 V 35.49 a 15,15 0 0 1 5.06,-0.72 c 6.49,0 8.66,2.62 8.66,10 z"
           transform="translate(-14.42,-6.68)"
           id="path10" />
      </g>
      <path
         id="Corona"
         class="cls-2"
         d="m 36.94,59.26 c 0.18,0.2 0.38,0.4 0.57,0.59 l 0.6,0.58 -10.74,13 C 26.76,72.89 26.16,72.33 25.58,71.75 25,71.17 24.44,70.61 23.91,70 l 13,-10.74 z m 4.49,3.74 -8,14.87 A 37,37 0 0 1 29.36,75.15 L 40.05,62 c 0.45,0.33 0.91,0.63 1.38,0.92 z m -7,-7 c 0.28,0.46 0.59,0.92 0.92,1.37 L 22.26,68 a 37.32,37.32 0 0 1 -2.72,-4.06 l 14.88,-8 z m 10.76,8.83 -4.95,16.09 a 38.29,38.29 0 0 1 -4.51,-1.87 l 7.92,-14.91 q 0.76,0.35 1.53,0.63 z M 32.6,52.18 q 0.28,0.78 0.63,1.53 l -14.91,7.93 a 36.16,36.16 0 0 1 -1.87,-4.52 z m 16.62,13.64 -1.69,16.8 a 39.17,39.17 0 0 1 -4.8,-1 L 47.6,65.5 c 0.53,0.13 1.07,0.23 1.62,0.32 z M 31.55,48.15 c 0.08,0.54 0.19,1.08 0.32,1.62 L 15.7,54.63 A 37.57,37.57 0 0 1 14.75,49.84 Z M 31.3,44 c 0,0.55 0,1.11 0,1.66 l -16.8,1.63 a 38,38 0 0 1 0,-4.89 z M 53.38,66.06 55,82.87 a 39.89,39.89 0 0 1 -4.89,0 l 1.62,-16.81 a 15.14,15.14 0 0 0 1.65,0 z m 4.13,-0.56 4.87,16.17 a 39.17,39.17 0 0 1 -4.8,1 l -1.69,-16.8 c 0.54,-0.09 1.09,-0.19 1.62,-0.32 z M 31.87,39.85 c -0.13,0.54 -0.24,1.08 -0.32,1.63 l -16.8,-1.7 A 37.57,37.57 0 0 1 15.7,35 l 16.17,4.86 z m 29.59,24.29 7.92,14.91 a 39.46,39.46 0 0 1 -4.52,1.87 L 59.93,64.77 q 0.76,-0.28 1.53,-0.63 z m -28.2,-28.3 c -0.23,0.5 -0.45,1 -0.64,1.53 l -16.13,-5 a 37.86,37.86 0 0 1 1.89,-4.52 l 14.88,8 z M 65.05,62 75.74,75.11 a 40,40 0 0 1 -4.07,2.72 L 63.68,63 c 0.47,-0.29 0.92,-0.59 1.37,-0.92 z M 35.35,32.3 c -0.33,0.45 -0.64,0.9 -0.92,1.37 l -14.87,-8 a 39.37,39.37 0 0 1 2.72,-4.06 z M 81.2,70 c -0.54,0.61 -1.09,1.2 -1.67,1.78 -0.58,0.58 -1.18,1.14 -1.79,1.68 L 67,60.43 l 0.6,-0.58 0.57,-0.59 z m -53.83,-53.83 10.74,13 -0.6,0.58 c -0.19,0.19 -0.39,0.39 -0.57,0.59 l -13,-10.74 c 0.53,-0.6 1.09,-1.2 1.67,-1.78 0.58,-0.58 1.18,-1.14 1.79,-1.67 z m 58.2,47.76 A 37.32,37.32 0 0 1 82.85,68 L 69.77,57.31 c 0.33,-0.45 0.64,-0.91 0.92,-1.37 l 14.88,8 z M 33.44,11.8 l 8,14.87 c -0.47,0.29 -0.93,0.6 -1.38,0.92 L 29.37,14.52 a 37,37 0 0 1 4.07,-2.72 z m 55.22,45.32 a 36.16,36.16 0 0 1 -1.87,4.52 L 71.88,53.71 q 0.34,-0.75 0.63,-1.53 z M 40.28,8.69 45.2,24.85 q -0.78,0.28 -1.53,0.63 L 35.76,10.56 a 39.46,39.46 0 0 1 4.52,-1.87 z m 50.08,41.15 a 37.57,37.57 0 0 1 -1,4.79 L 73.24,49.77 c 0.13,-0.54 0.24,-1.08 0.32,-1.62 z M 47.53,7 49.22,23.8 C 48.67,23.89 48.13,24 47.6,24.12 L 42.73,8 a 39.14,39.14 0 0 1 4.8,-1 z m 43.08,35.37 a 36.12,36.12 0 0 1 0,4.88 l -16.8,-1.61 c 0,-0.55 0,-1.1 0,-1.66 z M 55,6.75 53.38,23.56 q -0.83,0 -1.65,0 L 50.11,6.75 a 39.89,39.89 0 0 1 4.89,0 z M 89.41,35 a 37.57,37.57 0 0 1 1,4.79 l -16.8,1.7 C 73.53,40.94 73.42,40.4 73.29,39.86 Z m -27,-27 -4.9,16.12 C 56.98,24 56.43,23.89 55.89,23.8 L 57.58,7 a 39.14,39.14 0 0 1 4.8,0.94 z m 7,2.62 -7.95,14.87 c -0.51,-0.24 -1,-0.45 -1.53,-0.64 L 64.86,8.7 a 39.46,39.46 0 0 1 4.52,1.87 z M 86.78,28 a 37.74,37.74 0 0 1 1.87,4.52 l -16.14,5 c -0.19,-0.51 -0.41,-1 -0.64,-1.53 z M 75.71,14.5 65,27.58 c -0.45,-0.32 -0.91,-0.63 -1.38,-0.92 l 8,-14.88 a 37,37 0 0 1 4.07,2.72 z m 7.1,7.08 a 38.2,38.2 0 0 1 2.72,4.05 l -14.86,8 C 70.38,33.16 70.08,32.7 69.75,32.25 l 13.06,-10.7 z m -5.07,-5.41 c 0.61,0.53 1.2,1.09 1.79,1.67 0.59,0.58 1.13,1.16 1.67,1.78 l -13,10.75 q -0.28,-0.32 -0.57,-0.6 l -0.6,-0.58 10.74,-13 z"
         transform="translate(-14.42,-6.68)"
         style="fill:url(#Unbenannter_Verlauf_97)" />
    </g>
  </g>
</svg>
